<?xml version="1.0" encoding="UTF-8"?>
<svg width="24px" height="24px" viewBox="0 0 24 24" version="1.1" xmlns="http://www.w3.org/2000/svg" xmlns:xlink="http://www.w3.org/1999/xlink">
    <title>ic_download 24*24</title>
    <g id="Icons-Website-" stroke="none" stroke-width="1" fill="none" fill-rule="evenodd">
        <g id="icons" transform="translate(-494.000000, -540.000000)">
            <g id="ic_download-24*24" transform="translate(494.000000, 540.000000)">
                <rect id="Rectangle" x="0" y="0" width="24" height="24"></rect>
                <path d="M18,15 L18,18 L6,18 L6,15 L4,15 L4,18 C4,19.1 4.9,20 6,20 L18,20 C19.1,20 20,19.1 20,18 L20,15 L18,15 Z M17,11 L15.59,9.59 L13,12.17 L13,4 L11,4 L11,12.17 L8.41,9.59 L7,11 L12,16 L17,11 Z" id="Shape" fill="#007DFF" fill-rule="nonzero"></path>
            </g>
        </g>
    </g>
</svg>