<?xml version="1.0" encoding="UTF-8"?>
<svg width="24px" height="24px" viewBox="0 0 24 24" version="1.1" xmlns="http://www.w3.org/2000/svg" xmlns:xlink="http://www.w3.org/1999/xlink">
    <title>ic_qrcode grey 24*24 </title>
    <g id="Icons-Website-" stroke="none" stroke-width="1" fill="none" fill-rule="evenodd">
        <g id="icons" transform="translate(-589.000000, -568.000000)">
            <g id="ic_qrcode-grey-24*24-" transform="translate(589.000000, 568.000000)">
                <rect id="Rectangle" x="0" y="0" width="24" height="24"></rect>
                <path d="M15,21 L13,21 L13,19 L15,19 L15,21 Z M13,14 L11,14 L11,19 L13,19 L13,14 Z M21,12 L19,12 L19,16 L21,16 L21,12 Z M19,10 L17,10 L17,12 L19,12 L19,10 Z M7,12 L5,12 L5,14 L7,14 L7,12 Z M5,10 L3,10 L3,12 L5,12 L5,10 Z M12,5 L14,5 L14,3 L12,3 L12,5 Z M4.5,4.5 L4.5,7.5 L7.5,7.5 L7.5,4.5 L4.5,4.5 Z M9,9 L3,9 L3,3 L9,3 L9,9 Z M4.5,16.5 L4.5,19.5 L7.5,19.5 L7.5,16.5 L4.5,16.5 Z M9,21 L3,21 L3,15 L9,15 L9,21 Z M16.5,4.5 L16.5,7.5 L19.5,7.5 L19.5,4.5 L16.5,4.5 Z M21,9 L15,9 L15,3 L21,3 L21,9 Z M19,19 L19,16 L15,16 L15,18 L17,18 L17,21 L21,21 L21,19 L19,19 Z M17,12 L13,12 L13,14 L17,14 L17,12 Z M13,10 L7,10 L7,12 L9,12 L9,14 L11,14 L11,12 L13,12 L13,10 Z M14,9 L14,7 L12,7 L12,5 L10,5 L10,9 L14,9 Z M6.75,5.25 L5.25,5.25 L5.25,6.75 L6.75,6.75 L6.75,5.25 Z M6.75,17.25 L5.25,17.25 L5.25,18.75 L6.75,18.75 L6.75,17.25 Z M18.75,5.25 L17.25,5.25 L17.25,6.75 L18.75,6.75 L18.75,5.25 Z" id="Shape" fill="#474747" fill-rule="nonzero"></path>
            </g>
        </g>
    </g>
</svg>